<svg width="36" height="36" viewBox="0 0 36 36" fill="none" xmlns="http://www.w3.org/2000/svg">
<g clip-path="url(#clip0_71_8)">
<path d="M18 36C27.9411 36 36 27.9411 36 18C36 8.05887 27.9411 0 18 0C8.05887 0 0 8.05887 0 18C0 27.9411 8.05887 36 18 36Z" fill="url(#paint0_linear_71_8)"/>
<path d="M18 33C9.72903 33 3 26.2709 3 18C3 9.72904 9.72903 3 18 3C26.2713 3 33 9.72904 33 18C33 26.2709 26.2713 33 18 33Z" fill="url(#paint1_linear_71_8)"/>
<path opacity="0.3" d="M24.3723 18.3929C24.5812 17.9148 24.6988 17.3877 24.6988 16.8327C24.6988 14.677 22.9513 12.9294 20.7956 12.9294C18.9278 12.9294 17.3686 14.2422 16.9849 15.9947C16.4624 15.3569 15.6691 14.9497 14.7803 14.9497C13.2069 14.9497 11.9314 16.2251 11.9314 17.7984C11.9314 18.0618 11.9701 18.3156 12.0369 18.5577C10.9223 18.9649 10.125 20.0315 10.125 21.2871C10.125 22.8934 11.4271 24.1956 13.0333 24.1956H24.0916C25.6978 24.1956 27 22.8934 27 21.2871C27 19.7757 25.8467 18.5343 24.3723 18.3929ZM18.5624 22.9212L16.3569 20.7153L16.854 20.2182L18.2108 21.5753V17.9825H18.9139V21.5754L20.2711 20.2182L20.7682 20.7153L18.5624 22.9212Z" fill="black"/>
<path d="M23.8098 17.8304C24.0187 17.3523 24.1363 16.8252 24.1363 16.2702C24.1363 14.1145 22.3888 12.3669 20.2331 12.3669C18.3653 12.3669 16.8061 13.6797 16.4224 15.4322C15.8999 14.7944 15.1066 14.3872 14.2178 14.3872C12.6444 14.3872 11.3689 15.6626 11.3689 17.2359C11.3689 17.4993 11.4076 17.7531 11.4744 17.9952C10.3598 18.4024 9.5625 19.469 9.5625 20.7246C9.5625 22.3309 10.8646 23.6331 12.4708 23.6331H23.5291C25.1353 23.6331 26.4375 22.3309 26.4375 20.7246C26.4375 19.2132 25.2842 17.9718 23.8098 17.8304ZM17.9999 22.3587L15.7944 20.1528L16.2915 19.6557L17.6483 21.0128V17.42H18.3514V21.0129L19.7086 19.6557L20.2057 20.1528L17.9999 22.3587Z" fill="white"/>
</g>
<defs>
<linearGradient id="paint0_linear_71_8" x1="-1.89844e-07" y1="18" x2="36" y2="18" gradientUnits="userSpaceOnUse">
<stop stop-color="#A364AB"/>
<stop offset="1" stop-color="#8C3D96"/>
</linearGradient>
<linearGradient id="paint1_linear_71_8" x1="3" y1="18" x2="33" y2="18" gradientUnits="userSpaceOnUse">
<stop stop-color="#8C3D96"/>
<stop offset="1" stop-color="#A364AB"/>
</linearGradient>
<clipPath id="clip0_71_8">
<rect width="36" height="36" fill="white"/>
</clipPath>
</defs>
</svg>
